<svg width="25" height="25" viewBox="0 0 25 25" fill="none" xmlns="http://www.w3.org/2000/svg">
<path fill-rule="evenodd" clip-rule="evenodd" d="M12.5 25C19.4036 25 25 19.4036 25 12.5C25 5.59644 19.4036 0 12.5 0C5.59644 0 0 5.59644 0 12.5C0 19.4036 5.59644 25 12.5 25ZM18.2432 9.88434C18.2432 9.75309 18.2432 9.62179 18.2339 9.49059C18.8235 9.05929 19.3383 8.52494 19.75 7.92494C19.2072 8.15929 18.6176 8.3281 18.0092 8.39369C18.6363 8.01875 19.1136 7.4281 19.3382 6.72494C18.7579 7.07185 18.1028 7.32494 17.4196 7.45619C16.8674 6.86559 16.0812 6.49994 15.2108 6.49994C13.5355 6.49994 12.1878 7.85929 12.1878 9.5281C12.1878 9.76244 12.2159 9.99679 12.2627 10.2218C9.75446 10.0905 7.51756 8.89054 6.02946 7.05304C5.7674 7.5031 5.61768 8.01869 5.61768 8.58119C5.61768 9.63119 6.15113 10.5593 6.96536 11.103C6.4694 11.0843 6.00137 10.9437 5.59896 10.7187V10.7562C5.59896 12.2281 6.63786 13.4468 8.02304 13.7281C7.77036 13.7937 7.49887 13.8312 7.2275 13.8312C7.03095 13.8312 6.84375 13.8124 6.65655 13.7843C7.0403 14.9843 8.15405 15.8562 9.48304 15.8843C8.44417 16.6999 7.14321 17.1781 5.73001 17.1781C5.4773 17.1781 5.24335 17.1687 4.99999 17.1406C6.33833 18.003 7.9294 18.4999 9.64214 18.4999C15.2015 18.4999 18.2432 13.8874 18.2432 9.88434Z" fill="white" fill-opacity="0.6"/>
</svg>
